<?xml version="1.0" standalone="no"?>
<!DOCTYPE svg PUBLIC "-//W3C//DTD SVG 20010904//EN"
 "http://www.w3.org/TR/2001/REC-SVG-20010904/DTD/svg10.dtd">
<svg version="1.0" xmlns="http://www.w3.org/2000/svg"
 width="1200.000000pt" height="1200.000000pt" viewBox="0 0 1200.000000 1200.000000"
 preserveAspectRatio="xMidYMid meet">

<g transform="translate(0.000000,1200.000000) scale(0.100000,-0.100000)"
fill="#000000" stroke="none">
<path d="M5963 7141 c-67 -31 -96 -82 -122 -212 -12 -61 -26 -120 -30 -131 -7
-20 -17 -21 -292 -24 -156 -2 -293 -4 -304 -5 -11 -1 -55 4 -97 11 -72 12
-168 5 -222 -16 -10 -4 -7 9 10 42 44 86 26 212 -37 271 -50 46 -80 51 -309
49 -241 -2 -253 -5 -309 -73 -17 -21 -31 -32 -31 -26 0 17 -59 73 -89 85 -34
14 -385 20 -434 7 -58 -15 -114 -72 -132 -132 -18 -60 -19 -89 -4 -140 11 -42
69 -113 100 -122 18 -6 19 -18 19 -238 l0 -232 -35 -24 c-21 -14 -45 -45 -61
-77 -22 -46 -26 -64 -22 -119 3 -52 10 -72 35 -107 55 -76 79 -82 308 -84 110
-1 218 3 240 8 48 12 121 81 130 123 4 17 9 36 11 44 3 8 28 -18 63 -66 68
-93 113 -125 185 -131 58 -4 150 25 194 63 l27 23 59 -30 c65 -33 166 -58 236
-58 25 0 76 9 114 19 49 14 76 17 93 10 14 -5 35 -9 49 -9 l24 0 0 -314 0
-315 24 -28 24 -28 209 -3 c236 -4 261 -1 301 33 29 24 30 24 47 5 10 -11 32
-24 49 -30 39 -12 228 -11 273 2 63 18 97 104 70 171 -29 68 -117 97 -182 59
l-35 -21 0 114 c0 106 1 114 21 120 57 18 79 136 34 180 -13 14 -30 25 -38 25
-8 0 -20 7 -27 15 -11 13 8 15 164 15 176 0 176 0 187 -24 15 -32 49 -46 114
-46 30 0 55 -4 55 -10 0 -5 -29 -42 -66 -81 -101 -111 -116 -148 -122 -300 -8
-215 5 -229 213 -229 137 0 188 13 200 49 8 26 17 26 41 0 32 -36 70 -49 138
-49 72 0 110 11 143 42 l22 20 25 -28 24 -29 150 -3 c122 -3 156 0 181 12 23
13 36 14 58 5 15 -6 67 -11 115 -12 81 -2 89 0 129 28 93 65 114 147 114 443
0 205 1 213 20 218 11 2 81 3 155 2 124 -3 138 -1 178 20 27 14 54 41 73 69
24 39 29 57 29 110 0 70 -18 125 -55 163 -22 24 -24 34 -27 175 -5 168 -15
203 -84 283 -52 61 -104 91 -187 108 -77 16 -130 13 -209 -12 -44 -14 -52 -14
-100 2 -34 11 -90 18 -153 19 -55 2 -116 8 -135 14 -43 14 -96 6 -166 -25 -30
-13 -57 -24 -59 -24 -3 0 -5 24 -5 53 0 157 -96 269 -250 292 -25 3 -65 2 -88
-3 -38 -9 -49 -7 -80 11 -35 21 -52 22 -357 27 -224 4 -328 9 -348 18 -41 18
-126 14 -174 -7z m120 -178 c17 -16 51 -18 348 -21 219 -2 329 -6 329 -13 0
-6 -20 -37 -45 -69 -45 -58 -352 -522 -438 -661 -26 -42 -47 -81 -47 -88 0 -9
45 -11 189 -9 216 3 220 5 278 94 60 91 57 88 80 76 20 -11 20 -14 8 -81 -18
-91 -36 -150 -49 -159 -6 -4 -269 -6 -583 -4 l-573 3 0 24 c0 14 6 25 13 25 7
0 21 6 30 13 15 11 13 17 -19 70 -20 31 -40 55 -44 52 -5 -3 -23 -31 -41 -61
-26 -46 -29 -58 -18 -65 8 -5 20 -9 27 -9 6 0 12 -11 12 -25 l0 -26 -122 3
c-115 3 -123 4 -123 23 0 15 12 23 48 33 40 11 56 24 97 75 27 34 57 76 66 93
l17 32 -67 105 c-64 100 -98 137 -129 137 -24 0 -48 25 -41 43 5 15 24 17 169
17 122 0 164 -3 168 -12 6 -19 -3 -38 -18 -38 -28 0 -26 -22 5 -70 18 -28 33
-50 34 -50 6 0 66 90 66 98 0 6 -9 14 -20 17 -13 4 -20 15 -20 31 l0 24 125 0
125 0 0 -24 c0 -20 -7 -25 -37 -31 -21 -4 -49 -13 -64 -21 -34 -17 -129 -130
-129 -152 0 -24 145 -238 172 -256 13 -8 37 -18 53 -22 17 -4 32 -11 35 -15 9
-13 520 764 520 791 0 14 -271 13 -307 -1 -40 -15 -71 -47 -99 -101 -24 -46
-54 -63 -69 -38 -6 10 30 199 45 238 11 27 18 27 43 5z m-2018 -42 c11 -37 95
-145 274 -355 102 -118 189 -212 194 -209 6 4 8 86 4 223 -6 244 -15 285 -64
296 -64 14 -78 21 -78 40 0 18 9 19 175 19 164 0 175 -1 175 -19 0 -13 -14
-23 -45 -35 -75 -28 -74 -22 -78 -462 l-4 -387 -24 -11 c-14 -6 -31 -11 -39
-11 -8 0 -40 35 -71 78 -68 92 -484 601 -507 620 -14 12 -16 8 -23 -34 -9 -61
4 -478 16 -525 11 -38 32 -53 94 -64 29 -6 36 -12 36 -31 l0 -24 -174 0 c-136
0 -175 3 -179 13 -8 21 5 34 42 44 19 5 44 21 55 37 20 27 21 39 21 373 l0
345 -23 18 c-12 10 -40 21 -62 25 -34 6 -40 11 -40 31 l0 24 159 0 c147 0 160
-2 166 -19z m2958 -22 c72 -33 61 -156 -15 -183 -43 -15 -97 1 -119 37 -54 87
40 189 134 146z m40 -497 c-2 -119 -1 -237 4 -262 7 -40 13 -46 43 -56 23 -8
35 -18 35 -30 0 -18 -12 -19 -172 -22 l-173 -2 0 25 c0 20 5 25 24 25 52 0 56
16 56 209 0 177 0 178 -25 201 -14 13 -24 30 -23 38 2 8 41 28 88 46 47 18 94
37 104 43 42 24 44 13 39 -215z m397 178 c0 -22 4 -40 9 -40 5 0 32 12 59 26
93 48 175 45 238 -10 l38 -33 75 39 c120 61 214 49 269 -35 26 -39 27 -45 30
-216 1 -97 5 -186 7 -198 4 -15 16 -25 38 -31 22 -6 32 -14 32 -28 0 -18 -9
-19 -159 -22 -115 -2 -162 1 -167 9 -11 18 0 39 20 39 37 0 41 19 41 193 0 92
-4 176 -10 186 -22 43 -102 50 -142 14 -16 -14 -18 -37 -18 -195 l0 -178 28
-13 c33 -14 42 -26 35 -44 -4 -10 -40 -13 -159 -13 l-154 0 0 24 c0 18 7 25
29 29 25 5 29 11 35 53 10 73 7 255 -5 296 -17 65 -100 87 -151 41 -16 -14
-18 -34 -18 -187 0 -94 4 -176 8 -183 4 -6 20 -17 35 -22 19 -7 27 -17 25 -29
-3 -15 -20 -17 -166 -20 l-162 -2 0 23 c0 17 8 25 32 32 44 13 50 45 46 226
l-3 148 -29 30 c-37 38 -31 46 57 76 35 13 77 30 93 38 50 28 64 22 64 -23z
m-2295 -4 c58 -27 78 -47 100 -99 18 -45 19 -91 2 -106 -8 -6 -76 -12 -173
-13 -155 -3 -159 -4 -162 -25 -10 -68 57 -171 125 -194 59 -19 129 -7 167 30
36 35 51 39 60 14 9 -23 -36 -87 -86 -123 -54 -39 -109 -53 -184 -47 -119 9
-214 88 -245 200 -17 62 -6 165 22 222 29 59 105 129 162 148 66 24 153 21
212 -7z m1520 -676 c61 -14 85 -48 85 -121 0 -76 -22 -120 -101 -206 -75 -80
-89 -112 -89 -208 l0 -75 95 0 c95 0 95 0 95 -25 l0 -25 -125 0 -125 0 0 120
c0 143 3 151 101 262 75 84 93 128 78 183 -11 39 -21 43 -114 47 -53 3 -60 6
-63 25 -3 19 2 22 35 26 70 7 88 7 128 -3z m423 -12 c8 -7 23 -31 33 -53 16
-35 19 -69 19 -255 0 -119 -5 -232 -11 -252 -17 -62 -48 -90 -105 -95 -64 -5
-93 11 -121 67 -22 42 -23 56 -23 270 0 214 1 228 23 270 12 25 33 51 47 58
29 15 114 9 138 -10z m729 12 c54 -19 58 -40 58 -289 0 -255 -11 -312 -65
-351 -47 -34 -180 -26 -180 11 0 17 8 19 60 19 46 0 65 5 79 19 29 29 55 171
32 171 -6 0 -13 -4 -16 -10 -3 -5 -26 -10 -50 -10 -32 0 -52 7 -72 24 l-28 24
-3 149 c-4 181 6 222 58 240 44 15 89 16 127 3z m-2189 -27 c3 -22 1 -23 -82
-23 l-85 0 -3 -115 -3 -115 68 0 c65 0 67 -1 67 -25 0 -24 -2 -25 -65 -25
l-65 0 0 -140 0 -140 154 0 c149 0 155 1 170 22 9 12 16 41 16 63 0 37 -6 45
-80 115 l-80 75 0 57 c0 45 5 62 23 84 20 23 31 27 80 26 79 -1 100 -8 87 -33
-9 -15 -20 -19 -61 -17 -40 2 -54 -2 -65 -17 -31 -42 -15 -77 64 -141 82 -67
96 -92 89 -165 -6 -72 -26 -105 -69 -116 -18 -4 -115 -7 -215 -5 l-183 3 0
323 c0 177 3 326 7 330 4 3 57 5 117 4 106 -3 111 -4 114 -25z m1780 15 c9 -9
12 -90 12 -305 l0 -293 45 0 c41 0 45 -2 45 -25 l0 -25 -130 0 c-97 0 -130 3
-130 13 0 25 17 36 60 39 l45 3 3 273 2 272 -30 0 c-25 0 -30 4 -30 24 0 19 6
26 28 29 52 8 68 7 80 -5z m-1541 -52 c3 -3 2 -10 -2 -16 -5 -7 -30 -9 -78 -4
-81 7 -82 8 -72 25 6 8 29 10 78 6 38 -3 72 -8 74 -11z m1678 -158 c0 -145 2
-168 21 -209 13 -27 35 -54 53 -65 l30 -18 -36 -12 c-29 -10 -45 -10 -75 -1
l-38 12 0 227 0 228 23 0 c22 0 22 -1 22 -162z m-1545 87 c0 -34 1 -35 40 -35
36 0 40 -2 40 -25 0 -23 -4 -25 -42 -25 l-41 0 6 -186 c4 -118 10 -191 18
-200 6 -8 27 -14 45 -14 27 0 34 -4 34 -19 0 -24 -54 -36 -97 -20 -46 16 -53
48 -53 255 0 177 -1 184 -20 184 -15 0 -20 7 -20 25 0 18 5 25 20 25 16 0 20
7 20 35 0 31 3 35 25 35 22 0 25 -4 25 -35z m1267 -200 c-2 -181 -3 -190 -22
-193 -19 -3 -20 3 -20 206 l0 209 22 -16 c22 -16 23 -20 20 -206z m-1687 189
c0 -13 -21 -44 -30 -44 -6 0 -10 11 -10 25 0 18 5 25 20 25 11 0 20 -3 20 -6z
m280 -169 c0 -8 -4 -15 -9 -15 -5 0 -14 7 -21 15 -10 13 -9 15 9 15 12 0 21
-6 21 -15z m928 -209 c-2 -1 -33 0 -70 2 l-68 4 0 32 c0 25 14 48 68 108 l67
76 3 -111 c1 -60 1 -110 0 -111z m-1129 54 l55 -50 -87 0 -87 0 0 50 c0 50 0
50 33 50 24 -1 45 -13 86 -50z m565 -119 c19 -21 15 -51 -8 -70 -23 -20 -66 7
-66 40 0 45 44 63 74 30z"/>
<path d="M4981 6505 c-36 -31 -49 -64 -30 -76 19 -12 126 -11 150 1 23 13 25
47 3 78 -22 32 -83 30 -123 -3z"/>
<path d="M6978 5818 c-9 -16 -14 -82 -16 -213 -4 -207 1 -267 24 -290 22 -22
68 -19 90 6 18 19 19 39 19 248 0 260 -3 271 -65 271 -30 0 -42 -5 -52 -22z"/>
<path d="M7752 5853 c-34 -7 -42 -40 -42 -176 0 -163 20 -193 101 -151 l30 15
-3 144 c-2 79 -7 148 -13 153 -14 14 -46 20 -73 15z"/>
</g>
</svg>
